<svg width="16" height="24" viewBox="0 0 16 24" fill="none" xmlns="http://www.w3.org/2000/svg">
<path fill-rule="evenodd" clip-rule="evenodd" d="M4.66667 13.1666V22.5C4.66667 22.8094 4.54375 23.1061 4.32496 23.3249C4.10616 23.5437 3.80942 23.6666 3.5 23.6666C3.19058 23.6666 2.89383 23.5437 2.67504 23.3249C2.45625 23.1061 2.33333 22.8094 2.33333 22.5V13.1666C1.71449 13.1666 1.121 12.9208 0.683417 12.4832C0.245833 12.0456 0 11.4522 0 10.8333V2.66665C0 2.04781 0.245833 1.45432 0.683417 1.01673C1.121 0.579146 1.71449 0.333313 2.33333 0.333313V7.33331H4.66667V0.333313C5.2855 0.333313 5.879 0.579146 6.31658 1.01673C6.75417 1.45432 7 2.04781 7 2.66665V10.8333C7 11.4522 6.75417 12.0456 6.31658 12.4832C5.879 12.9208 5.2855 13.1666 4.66667 13.1666ZM15.1667 2.66665V22.5C15.1667 22.8094 15.0437 23.1061 14.825 23.3249C14.6062 23.5437 14.3094 23.6666 14 23.6666C13.6906 23.6666 13.3938 23.5437 13.175 23.3249C12.9562 23.1061 12.8333 22.8094 12.8333 22.5V15.5H11.6667C11.0478 15.5 10.4543 15.2541 10.0168 14.8166C9.57917 14.379 9.33333 13.7855 9.33333 13.1666V2.66665C9.33333 2.04781 9.57917 1.45432 10.0168 1.01673C10.4543 0.579146 11.0478 0.333313 11.6667 0.333313H12.8333C13.4522 0.333313 14.0457 0.579146 14.4832 1.01673C14.9208 1.45432 15.1667 2.04781 15.1667 2.66665Z" fill="#22CECE"/>
</svg>
