<svg width="24" height="24" viewBox="0 0 24 24" fill="none" xmlns="http://www.w3.org/2000/svg">
<path d="M11.9833 24C5.35565 24 0 18.6444 0 12.0167C0 5.38912 5.35565 0 11.9833 0C18.6109 0 24 5.38912 24 12.0167C24 18.6444 18.6109 24 11.9833 24ZM11.9833 2.97908C7.02929 2.97908 3.01255 7.06276 3.01255 12.0167C3.01255 16.9707 7.02929 20.9874 11.9833 20.9874C16.9372 20.9874 21.0209 16.9707 21.0209 12.0167C21.0209 7.06276 16.9372 2.97908 11.9833 2.97908ZM15.2301 16.6025L10.9791 13.4895C10.6778 13.2552 10.3766 12.7531 10.3766 12.3515V5.55649C10.3766 5.18828 10.7113 4.88703 11.113 4.88703H12.5188C12.887 4.88703 13.1883 5.18828 13.1883 5.55649V10.9121C13.1883 11.3138 13.4895 11.8159 13.7908 12.0502L16.9038 14.2929C17.205 14.5272 17.272 14.9958 17.0377 15.2971L16.2008 16.4351C15.9665 16.7364 15.5314 16.8033 15.2301 16.6025Z" fill="#22CECE"/>
</svg>
