<svg width="19" height="24" viewBox="0 0 19 24" fill="none" xmlns="http://www.w3.org/2000/svg">
<path d="M18.663 14.0517C18.3881 10.4723 16.7216 8.22933 15.2514 6.24998C13.89 4.41754 12.7143 2.83514 12.7143 0.500856C12.7143 0.313356 12.6093 0.141981 12.4428 0.0560595C12.2758 -0.030378 12.0751 -0.0162217 11.9233 0.094122C9.71526 1.67409 7.87298 4.33701 7.22944 6.87783C6.78267 8.64675 6.72356 10.6354 6.71526 11.9488C4.6762 11.5132 4.21429 8.46319 4.20942 8.42995C4.18645 8.27175 4.08979 8.13408 3.94917 8.05889C3.80709 7.98468 3.64008 7.97929 3.49603 8.05059C3.38911 8.10234 0.871498 9.38156 0.725013 14.4891C0.714748 14.659 0.714279 14.8295 0.714279 14.9999C0.714279 19.9619 4.75186 23.9992 9.71428 23.9992C9.72112 23.9997 9.72844 24.0007 9.73429 23.9992C9.73626 23.9992 9.73819 23.9992 9.74062 23.9992C14.6909 23.985 18.7143 19.9531 18.7143 14.9999C18.7143 14.7503 18.663 14.0517 18.663 14.0517ZM9.71428 22.9993C8.05997 22.9993 6.71428 21.5658 6.71428 19.8037C6.71428 19.7437 6.71381 19.6831 6.71817 19.6089C6.73818 18.8658 6.87933 18.3585 7.03411 18.0211C7.32417 18.6442 7.8427 19.2169 8.685 19.2169C8.96137 19.2169 9.18501 18.9932 9.18501 18.7169C9.18501 18.0051 9.19969 17.1838 9.37692 16.4426C9.53465 15.7854 9.91158 15.0862 10.3891 14.5258C10.6015 15.2533 11.0156 15.8421 11.4199 16.4167C11.9985 17.2389 12.5967 18.089 12.7017 19.5386C12.708 19.6245 12.7144 19.711 12.7144 19.8037C12.7143 21.5658 11.3686 22.9993 9.71428 22.9993Z" fill="#22CECE"/>
</svg>
